<svg xmlns="http://www.w3.org/2000/svg" width="18" height="18" viewBox="0 0 18 18">
    <g fill="none" fill-rule="evenodd">
        <g fill="#467CDD" fill-rule="nonzero">
            <g>
                <path d="M311.98 240.16l.774-.773c.183-.183.183-.48 0-.663l-6.06-6.06h13.337c.26 0 .469-.21.469-.468v-1.094c0-.259-.21-.469-.469-.469h-13.337l6.06-6.06c.183-.182.183-.48 0-.662l-.774-.774c-.183-.183-.48-.183-.663 0l-8.18 8.18c-.183.184-.183.48 0 .663l8.18 8.18c.184.184.48.184.663 0z" transform="translate(-303 -687) translate(0 464)"/>
            </g>
        </g>
    </g>
</svg>
