<svg width="48" height="48" viewBox="0 0 48 48" fill="none" xmlns="http://www.w3.org/2000/svg">
  <path d="M24 48C37.2548 48 48 37.2548 48 24C48 10.7452 37.2548 0 24 0C10.7452 0 0 10.7452 0 24C0 37.2548 10.7452 48 24 48Z" fill="#F7931A"/>
  <path d="M17.3971 12.0281C18.2221 12.2531 19.0471 12.4031 19.8721 12.6281C20.6971 12.8531 21.5221 13.0031 22.3471 13.2281C22.5721 13.3031 22.6471 13.2281 22.7221 13.0031C23.0221 11.7281 23.3221 10.5281 23.6221 9.25313C23.6971 9.02813 23.7721 8.95312 23.9971 9.02812C24.7471 9.25312 25.4221 9.40313 26.1721 9.55313C26.3971 9.62813 26.3971 9.70312 26.3221 9.85312C26.0221 11.0531 25.7221 12.3281 25.4221 13.5281C25.4221 13.6031 25.4221 13.6781 25.3471 13.8281C25.9471 13.9781 26.6221 14.1281 27.2221 14.2781C27.2971 14.2781 27.3721 14.1281 27.4471 14.0531C27.6721 13.0781 27.8971 12.1781 28.1971 11.2031C28.2721 10.9031 28.3471 10.6031 28.4221 10.3031C28.4221 10.1531 28.4971 10.0781 28.6471 10.1531C29.3971 10.3781 30.1471 10.5281 30.9721 10.7531C31.0471 10.7531 31.0471 10.8281 31.1221 10.8281C30.8971 11.8031 30.6721 12.7031 30.4471 13.6031C30.3721 13.9781 30.2971 14.3531 30.1471 14.7281C30.0721 14.9531 30.1471 15.0281 30.3721 15.1031C31.1971 15.4781 32.0221 15.8531 32.8471 16.2281C33.5971 16.6781 34.2721 17.2781 34.7971 18.0281C35.4721 19.1531 35.5471 20.3531 35.2471 21.5531C35.0221 22.3781 34.7221 23.1281 34.1221 23.7281C33.6721 24.1781 33.0721 24.4781 32.4721 24.7031C32.3971 24.7031 32.3221 24.7781 32.1721 24.7781C32.4721 25.0031 32.7721 25.1531 33.0721 25.3781C33.9721 26.0531 34.5721 26.8781 34.8721 27.9281C35.0221 28.7531 34.9471 29.6531 34.7221 30.4781C34.4221 31.5281 34.0471 32.4281 33.3721 33.2531C32.5471 34.2281 31.4971 34.7531 30.2971 34.9031C28.7221 35.1281 27.2221 34.9781 25.7221 34.7531C25.4971 34.6781 25.3471 34.7531 25.2721 34.9781C24.9721 36.1781 24.6721 37.4531 24.3721 38.6531C24.2971 38.9531 24.2971 39.0281 23.9221 38.8781C23.2471 38.7281 22.4971 38.5031 21.8221 38.3531C21.5971 38.2781 21.5971 38.2031 21.6721 38.0531C21.9721 36.7781 22.2721 35.5031 22.6471 34.3031C22.6471 34.1531 22.7221 34.0781 22.5721 34.0031C21.9721 33.8531 21.3721 33.7031 20.6971 33.5531C20.5471 34.2281 20.3221 34.9031 20.1721 35.5781C20.0221 36.2531 19.7971 36.9281 19.6471 37.6031C19.5721 37.7531 19.5721 37.8281 19.3471 37.7531C18.5971 37.5281 17.8471 37.3781 17.0971 37.2281C16.8721 37.1531 16.8721 37.0781 16.9471 36.9281C17.2471 35.6531 17.5471 34.3781 17.9221 33.1781C17.9221 33.1031 17.9971 33.0281 17.9971 32.8781C16.2721 32.4281 14.5471 31.9781 12.7471 31.5281C12.8971 31.2281 12.9721 31.0031 13.1221 30.7031C13.4221 30.0281 13.7221 29.3531 13.9471 28.7531C14.0221 28.5281 14.0971 28.5281 14.3221 28.5281C14.8471 28.6781 15.4471 28.8281 15.9721 28.9031C16.5721 29.0531 17.0221 28.7531 17.0971 28.2281C18.0721 24.4031 19.0471 20.5781 19.9471 16.6781C20.0971 16.0781 19.7221 15.4031 19.0471 15.1781C18.3721 14.9531 17.6971 14.8031 17.0971 14.6531C16.9471 14.6531 16.8721 14.5781 16.9471 14.4281C17.1721 13.6031 17.3971 12.7031 17.6221 11.8781C17.3221 12.1031 17.3221 12.1031 17.3971 12.0281ZM21.2221 30.5531C21.2971 30.5531 21.3721 30.6281 21.3721 30.6281C22.5721 30.9281 23.8471 31.3031 25.1221 31.3781C26.0221 31.4531 26.8471 31.4531 27.6721 31.1531C29.0971 30.7031 29.6971 28.8281 28.8721 27.6281C28.4971 27.0281 27.8971 26.6531 27.2971 26.2781C25.9471 25.5281 24.3721 25.2281 22.8721 24.9281C22.6471 24.8531 22.6471 24.9281 22.5721 25.1531C22.4221 25.9031 22.1971 26.5781 22.0471 27.3281C21.7471 28.3781 21.5221 29.4281 21.2221 30.5531ZM27.5221 22.9031C27.6721 22.9031 28.0471 22.8281 28.3471 22.7531C29.7721 22.4531 30.5221 20.8031 29.7721 19.5281C29.3971 18.8531 28.7221 18.4031 28.0471 18.1031C26.9971 17.6531 25.9471 17.4281 24.8221 17.1281C24.5971 17.0531 24.5221 17.1281 24.4471 17.3531C24.0721 18.9281 23.6971 20.4281 23.2471 22.0031C23.1721 22.1531 23.2471 22.2281 23.3971 22.3031C23.6971 22.3781 23.9221 22.4531 24.2221 22.5281C25.3471 22.6781 26.3221 22.9031 27.5221 22.9031Z" fill="white"/>
</svg>
