<svg xmlns="http://www.w3.org/2000/svg" width="16" height="17" viewBox="0 0 16 17">
    <g fill="none" fill-rule="evenodd">
        <g fill="#DC2626" fill-rule="nonzero">
            <path d="M48 700.25c4.418 0 8-3.58 8-8 0-4.417-3.582-8-8-8s-8 3.583-8 8c0 4.42 3.582 8 8 8zm0-1.032c-3.847 0-6.968-3.115-6.968-6.968 0-3.845 3.116-6.968 6.968-6.968 3.826 0 6.968 3.1 6.968 6.968 0 3.848-3.117 6.968-6.968 6.968zm.145-4.903c.207 0 .378-.164.387-.371l.225-5.42c.01-.22-.166-.403-.386-.403h-.742c-.22 0-.396.183-.386.403l.225 5.42c.009.207.18.37.387.37h.29zM48 696.766c.499 0 .903-.404.903-.903s-.404-.903-.903-.903-.903.404-.903.903.404.903.903.903z" transform="translate(-40.000000, -684.000000)"/>
        </g>
    </g>
</svg>
