<svg width="330" height="341" viewBox="0 0 330 341" fill="none" xmlns="http://www.w3.org/2000/svg">
  <path d="M34.8077 149.09C34.8077 149.09 92.8256 146.767 105.363 51.3981C116.497 -33.2988 214.331 5.25211 242.611 39.0143C279.245 82.7504 259.716 157.986 307.107 167.49C354.498 176.994 323.551 282.666 251.614 272.552C162.128 259.97 183.778 312.261 156.915 334.393C137.636 350.278 58.5835 334.987 55.9488 277.324C53.7317 228.802 33.2639 228.956 18.7563 223.454C-2.16713 215.519 -15.3512 158.051 34.8077 149.09Z" fill="#CCCCCE" fill-opacity="0.11"/>
  <path d="M232.036 255.004L175.035 198.679L163.748 210.102L220.749 266.426L232.036 255.004Z" fill="#99999B"/>
  <path d="M253.811 270.138L209.465 226.317C209.218 226.074 208.82 226.076 208.576 226.323L191.791 243.309C191.547 243.556 191.549 243.954 191.796 244.198L236.143 288.019C236.39 288.263 236.788 288.26 237.032 288.013L253.817 271.027C254.061 270.78 254.058 270.382 253.811 270.138Z" fill="#CCCCCE"/>
  <path d="M124.516 227.006C163.731 227.006 195.521 195.216 195.521 156.001C195.521 116.787 163.731 84.9966 124.516 84.9966C85.3016 84.9966 53.5117 116.787 53.5117 156.001C53.5117 195.216 85.3016 227.006 124.516 227.006Z" fill="#99999B"/>
  <path d="M124.517 215.421C157.333 215.421 183.936 188.818 183.936 156.002C183.936 123.185 157.333 96.5825 124.517 96.5825C91.7005 96.5825 65.0977 123.185 65.0977 156.002C65.0977 188.818 91.7005 215.421 124.517 215.421Z" fill="#CCCCCE"/>
  <path d="M244.559 91.8126C227.904 86.414 209.904 95.5446 204.484 112.268C199.085 128.924 208.216 146.923 224.94 152.343C241.664 157.764 259.616 148.543 265.016 131.887C270.415 115.231 261.215 97.211 244.559 91.8126ZM239.533 107.318C241.398 107.922 243.04 109.066 244.253 110.606C245.466 112.145 246.195 114.01 246.346 115.964C246.498 117.917 246.066 119.872 245.105 121.58C244.144 123.288 242.697 124.672 240.949 125.557C239.2 126.442 237.228 126.787 235.283 126.549C233.337 126.312 231.506 125.502 230.022 124.222C228.538 122.942 227.467 121.25 226.946 119.361C226.424 117.472 226.476 115.471 227.093 113.611C228.761 108.465 234.387 105.65 239.533 107.318ZM226.959 146.114C221.425 144.33 216.684 140.677 213.548 135.782C219.417 132.447 225.554 131.518 231.106 133.317C236.659 135.117 241.173 139.423 243.881 145.613C238.469 147.738 232.487 147.915 226.959 146.114Z" fill="#A9AAAC"/>
  <path d="M105.931 243.585C103.038 245.062 100.648 247.363 99.0627 250.198C97.4777 253.033 96.769 256.274 97.0262 259.512C97.2834 262.75 98.4949 265.839 100.508 268.388C102.52 270.937 105.244 272.833 108.333 273.834C111.423 274.835 114.741 274.898 117.866 274.014C120.991 273.13 123.785 271.34 125.892 268.868C128 266.397 129.327 263.356 129.707 260.13C130.086 256.904 129.5 253.638 128.024 250.746C126.04 246.87 122.6 243.939 118.458 242.596C114.316 241.254 109.811 241.609 105.931 243.585ZM109.756 251.078C110.657 250.618 111.674 250.436 112.679 250.555C113.683 250.674 114.63 251.089 115.399 251.747C116.167 252.405 116.723 253.276 116.996 254.25C117.268 255.225 117.245 256.258 116.93 257.219C116.615 258.18 116.021 259.026 115.224 259.649C114.427 260.272 113.463 260.645 112.454 260.719C111.445 260.794 110.437 260.567 109.557 260.068C108.677 259.569 107.966 258.819 107.512 257.915C106.912 256.709 106.81 255.315 107.23 254.035C107.65 252.756 108.558 251.693 109.756 251.078V251.078ZM119.326 269.828C116.656 271.197 113.592 271.594 110.66 270.952C111.585 267.593 113.486 265.014 116.17 263.644C118.854 262.274 122.073 262.198 125.321 263.469C124.121 266.22 122.001 268.468 119.326 269.828V269.828Z" fill="#A9AAAC"/>
</svg>
