<svg width="16" height="16" viewBox="0 0 16 16" fill="none" xmlns="http://www.w3.org/2000/svg">
<path d="M1.44984 9.19719L0.657069 8.40442C0.321393 8.06874 0.321393 7.52595 0.657069 7.19384L7.59558 0.251759C7.93126 -0.0839175 8.47405 -0.0839175 8.80616 0.251759L15.7482 7.19384C16.0839 7.52952 16.0839 8.07231 15.7482 8.40442L14.9555 9.19719C14.6162 9.53644 14.0627 9.52929 13.7306 9.1829L9.63107 4.87981V15.143C9.63107 15.6179 9.24897 16 8.77402 16H7.63129C7.15634 16 6.77424 15.6179 6.77424 15.143V4.87981L2.6747 9.1829C2.3426 9.53287 1.78908 9.54001 1.44984 9.19719Z" fill="#467CDD"/>
</svg>
