<svg width="24" height="24" viewBox="0 0 24 24" fill="none" xmlns="http://www.w3.org/2000/svg">
<circle cx="12" cy="12" r="12" fill="#EB4D4D"/>
<path fill-rule="evenodd" clip-rule="evenodd" d="M17.7849 7.77118L13.5561 12L17.7849 16.2288C18.0717 16.5156 18.0717 16.9794 17.7849 17.2662L17.2662 17.7849C16.9794 18.0717 16.5156 18.0717 16.2288 17.7849L12 13.5561L7.77118 17.7849C7.48436 18.0717 7.02062 18.0717 6.7338 17.7849L6.21511 17.2662C5.9283 16.9794 5.9283 16.5156 6.21511 16.2288L10.4439 12L6.21511 7.77118C5.9283 7.48436 5.9283 7.02062 6.21511 6.7338L6.7338 6.21511C7.02062 5.9283 7.48436 5.9283 7.77118 6.21511L12 10.4439L16.2288 6.21511C16.5156 5.9283 16.9794 5.9283 17.2662 6.21511L17.7849 6.7338C18.0656 7.02062 18.0656 7.48436 17.7849 7.77118Z" fill="white"/>
</svg>
