<svg width="24" height="24" viewBox="0 0 24 24" fill="none" xmlns="http://www.w3.org/2000/svg">
<path d="M 10.231 17.46 L 18.721 8.97 L 17.341 7.62 L 10.231 14.73 L 6.631 11.13 L 5.281 12.479 L 10.231 17.46 Z M 12 24 C 10.36 24 8.811 23.685 7.351 23.056 C 5.89 22.426 4.614 21.566 3.526 20.476 C 2.436 19.386 1.576 18.11 0.944 16.651 C 0.315 15.191 0 13.64 0 12 C 0 10.34 0.315 8.78 0.944 7.32 C 1.576 5.859 2.436 4.59 3.526 3.51 C 4.614 2.43 5.89 1.574 7.351 0.944 C 8.811 0.315 10.36 0 12 0 C 13.66 0 15.222 0.315 16.68 0.944 C 18.141 1.574 19.41 2.43 20.49 3.51 C 21.57 4.59 22.426 5.859 23.056 7.32 C 23.687 8.78 24.002 10.34 24.002 12 C 24.002 13.64 23.687 15.191 23.056 16.651 C 22.426 18.11 21.57 19.386 20.49 20.476 C 19.41 21.566 18.141 22.426 16.68 23.056 C 15.222 23.685 13.66 24 12 24 Z" fill="#4FD133"/>
</svg>
